<svg width="143" height="143" viewBox="0 0 143 143" fill="none" xmlns="http://www.w3.org/2000/svg">
<g clip-path="url(#clip0_3_13)">
<mask id="mask0_3_13" style="mask-type:luminance" maskUnits="userSpaceOnUse" x="0" y="0" width="143" height="143">
<path d="M143 0H0V143H143V0Z" fill="white"/>
</mask>
<g mask="url(#mask0_3_13)">
<path d="M8.63109 122.051V111.775C8.82166 108.031 10.0319 104.411 12.131 101.306C14.2301 98.2002 17.1382 95.7277 20.5409 94.1553C53.2439 81.0193 89.7562 81.0193 122.459 94.1553C125.861 95.7277 128.769 98.2002 130.868 101.306C132.969 104.411 134.178 108.031 134.369 111.775V122.051C134.368 124.804 133.823 127.531 132.767 130.076C131.712 132.619 130.165 134.93 128.216 136.876C126.266 138.821 123.952 140.364 121.407 141.415C118.861 142.465 116.132 143.004 113.379 143H29.6214C26.8673 143.004 24.1393 142.465 21.5934 141.415C19.0476 140.364 16.7339 138.821 14.7845 136.876C12.8351 134.93 11.2882 132.619 10.2324 130.076C9.17657 127.531 8.63243 124.804 8.63109 122.051ZM71.5 1.49401e-06C64.5906 -0.00201883 57.8356 2.04504 52.0896 5.88228C46.3435 9.71953 41.8646 15.1745 39.219 21.5576C36.5735 27.9406 35.8802 34.9646 37.2269 41.7417C38.5736 48.5187 41.8999 54.7441 46.7849 59.6305C51.67 64.517 57.8944 67.845 64.6709 69.1937C71.4476 70.5424 78.472 69.8513 84.8557 67.2076C91.2394 64.5639 96.6958 60.0865 100.535 54.3415C104.374 48.5967 106.423 41.8424 106.423 34.9329C106.424 30.3459 105.522 25.8036 103.767 21.5654C102.013 17.3272 99.4407 13.4761 96.1976 10.2323C92.9547 6.98827 89.1043 4.41497 84.8667 2.65931C80.629 0.90364 76.0869 1.29782e-06 71.5 1.49401e-06Z" fill="white"/>
</g>
</g>
<defs>
<clipPath id="clip0_3_13">
<rect width="143" height="143" fill="white"/>
</clipPath>
</defs>
</svg>
