<svg width="143" height="143" viewBox="0 0 143 143" fill="none" xmlns="http://www.w3.org/2000/svg">
<path d="M83.4167 105.517C83.4167 112.017 78.2167 117.217 71.7167 117.217C65.2167 117.217 60.0167 112.017 60.0167 105.517C60.0167 99.0167 65.2167 93.8167 71.7167 93.8167C78.2167 93.8167 83.4167 99.0167 83.4167 105.517Z" fill="white"/>
<path d="M126.75 105.517C126.75 112.017 121.55 117.217 115.05 117.217C108.55 117.217 103.35 112.017 103.35 105.517C103.35 99.0167 108.55 93.8167 115.05 93.8167C121.55 93.8167 126.75 99.0167 126.75 105.517Z" fill="white"/>
<path d="M138.883 137.15L135.85 128.7C134.55 123.933 130.433 120.683 125.45 120.683H104.65C99.8833 120.683 95.55 123.933 94.25 128.483L93.1666 131.083L92.5166 128.917C91.2166 124.15 87.1 120.9 82.1166 120.9H61.3166C60.6666 120.9 59.8 120.9 59.15 121.117V75.4H124.8C130.867 75.4 135.633 70.6333 135.633 64.5667V12.7833C135.633 6.93333 130.867 1.95 124.8 1.95H18.4166C12.35 1.95 7.58331 6.71666 7.58331 12.7833V64.5667C7.58331 70.6333 12.35 75.4 18.4166 75.4H22.75V95.1167C19.0666 97.0667 16.4666 100.967 16.4666 105.517C16.4666 112.017 21.6666 117.217 28.1666 117.217C34.6666 117.217 39.8666 112.017 39.8666 105.517C39.8666 99.0167 34.6666 93.8167 28.1666 93.8167C27.7333 93.8167 27.3 93.8167 26.8666 93.8167V65.8667C26.8666 59.3667 32.2833 53.95 38.7833 53.95H48.1C56.1166 53.95 68.6833 51.35 76.05 48.1L78.4333 47.0167C79.5166 46.5833 80.6 46.5833 81.6833 47.0167C82.7666 47.45 83.6333 48.3167 83.85 49.4C84.5 51.35 83.6333 53.5167 81.6833 54.3833L59.8 60.0167C56.55 60.8833 54.1666 63.9167 54.1666 67.1667V72.3667C54.1666 72.5833 54.1666 72.8 54.1666 73.0167C54.1666 73.2333 54.1666 73.45 54.1666 73.45V122.85C52.4333 124.15 50.9166 126.317 50.4833 128.483L49.8333 131.083L48.9666 128.483C47.6666 123.717 43.55 120.467 38.5666 120.467H17.9833C13.2166 120.467 8.88331 123.717 7.58331 128.267L4.3333 137.583C4.3333 138.017 4.11664 138.233 4.11664 138.667C4.11664 139.967 5.19997 140.833 6.28331 140.833H49.8333C50.05 141.05 50.4833 141.05 50.7 141.05C50.9166 141.05 51.1333 141.05 51.35 140.833C51.35 140.833 51.35 140.833 51.5666 140.833L136.5 140.617C137.367 140.617 138.233 139.967 138.45 139.1C138.883 138.667 139.1 138.017 138.883 137.15ZM59.15 67.3833C59.15 65.8667 60.2333 64.7833 61.5333 64.35L83.6333 58.7167C83.6333 58.7167 83.85 58.7167 83.85 58.5C87.3166 56.9833 89.2666 53.5167 88.8333 49.8333L115.267 32.0667C116.35 31.4167 116.567 30.1167 115.917 29.0333C115.267 27.95 113.967 27.7333 112.883 28.3833L87.1 45.7167C86.2333 44.6333 85.15 43.7667 83.85 43.1167C81.6833 42.25 79.0833 42.25 76.9166 43.1167L74.5333 44.2C67.8166 47.2333 55.6833 49.6167 48.3166 49.6167H39C30.1166 49.6167 22.75 56.9833 22.75 65.8667V71.0667H18.4166C14.7333 71.0667 11.9166 68.0333 11.9166 64.5667V12.7833C11.9166 9.31666 14.7333 6.28333 18.4166 6.28333H124.8C128.267 6.28333 131.3 9.31666 131.3 12.7833V64.5667C131.3 68.0333 128.267 71.0667 124.8 71.0667H59.15V67.3833Z" fill="white"/>
<path d="M58.2833 32.9333C58.2833 40.0833 52.4333 45.9333 45.2833 45.9333C38.1333 45.9333 32.2833 40.0833 32.2833 32.9333C32.2833 25.7833 38.1333 19.9333 45.2833 19.9333C52.4333 19.9333 58.2833 25.7833 58.2833 32.9333Z" fill="white"/>
</svg>
